<svg xmlns="http://www.w3.org/2000/svg" version="1.1" viewBox="149.51 215 185.49 68.23">
<path d="M0 0 C3.48141598 1.21931026 5.77398199 4.01151601 8.3190155 6.58381653 C8.91027725 7.1722081 9.501539 7.76059967 10.11071777 8.36682129 C11.35742674 9.61149091 12.6003637 10.8599486 13.83976746 12.1118927 C15.73784689 14.02602663 17.65137776 15.92364886 19.56706238 17.82014465 C20.77700982 19.03207455 21.9860263 20.24493475 23.1940155 21.45881653 C24.05333931 22.3090313 24.05333931 22.3090313 24.93002319 23.17642212 C27.62812324 25.92288417 29.52355553 27.8609721 30.05729675 31.72053528 C28.86979675 33.61506653 28.86979675 33.61506653 27.05729675 35.53303528 C26.41018738 36.21881653 25.763078 36.90459778 25.09635925 37.61116028 C24.42346863 38.30725403 23.750578 39.00334778 23.05729675 39.72053528 C22.44628113 40.41662903 21.8352655 41.11272278 21.20573425 41.82991028 C20.62049988 42.47444153 20.0352655 43.11897278 19.43229675 43.78303528 C18.90378113 44.37213684 18.3752655 44.9612384 17.83073425 45.56819153 C16.05729675 46.72053528 16.05729675 46.72053528 13.58854675 46.62678528 C10.66378985 45.57965009 9.3057358 44.40923311 7.18229675 42.15803528 C6.56612488 41.51737122 5.949953 40.87670715 5.31510925 40.21662903 C4.57003113 39.39291809 3.824953 38.56920715 3.05729675 37.72053528 C2.16530579 36.96087463 2.16530579 36.96087463 1.2552948 36.18586731 C-2.03692002 33.10413084 -3.74887621 30.88088505 -4.50422668 26.35896301 C-4.63078304 22.4572306 -4.55399027 18.62023974 -4.38020325 14.72053528 C-4.34502938 13.35993886 -4.31310105 11.99925448 -4.28450012 10.63850403 C-4.20238021 7.33024484 -4.08756392 4.02654237 -3.94270325 0.72053528 C-1.94270325 -0.27946472 -1.94270325 -0.27946472 0 0 Z " fill="#3B51D7" transform="translate(189.9427032470703,215.2794647216797)"/>
<path d="M0 0 C0.07061617 4.00158275 0.04075259 7.99809582 0 12 C0.00483398 12.72799805 0.00966797 13.45599609 0.01464844 14.20605469 C0.07404887 29.8679688 0.07404887 29.8679688 -4.0625 34.625 C-5.35437365 35.77362688 -6.66803014 36.8981209 -8 38 C-9.37772642 39.5183639 -10.75273035 41.03920257 -12.125 42.5625 C-14.0078125 44.62890625 -14.0078125 44.62890625 -16 46 C-19.60492424 46.11396599 -21.51597047 44.74948894 -24.11328125 42.453125 C-25.19020304 41.39602386 -26.25640567 40.32790916 -27.3125 39.25 C-27.86228516 38.7240625 -28.41207031 38.198125 -28.97851562 37.65625 C-31.33640098 35.2895775 -32.88557866 33.63343652 -33.48828125 30.296875 C-32.35700996 24.97537484 -27.63821258 21.63301209 -23.58984375 18.3984375 C-21.11543735 16.22193261 -19.07322534 13.70202188 -16.9375 11.19921875 C-5.59286316 -1.67785895 -5.59286316 -1.67785895 0 0 Z " fill="#3B51D6" transform="translate(183,216)"/>
<path d="M0 0 C2.09523691 1.68019682 3.88902257 3.28388562 5.75 5.1875 C6.24371094 5.65736328 6.73742187 6.12722656 7.24609375 6.61132812 C9.51835805 8.8929305 10.97985671 10.95110851 12.20703125 13.9296875 C11.88826227 18.65709161 9.25532104 20.76903425 5.9375 23.9375 C5.36322266 24.53884766 4.78894531 25.14019531 4.19726562 25.75976562 C1.42036049 28.49284136 -0.06724314 29.92787962 -4.03125 30.234375 C-7.97501287 28.59459991 -10.47298813 26.3350684 -13.4375 23.3125 C-13.99115234 22.79494141 -14.54480469 22.27738281 -15.11523438 21.74414062 C-17.67376607 19.18560893 -18.96094924 17.63132066 -19.1875 13.96875 C-17.69405074 10.23512685 -15.4573199 7.86897866 -12.5625 5.1875 C-11.80743164 4.45370117 -11.80743164 4.45370117 -11.03710938 3.70507812 C-5.36597936 -1.74011045 -5.36597936 -1.74011045 0 0 Z " fill="#34ECF8" transform="translate(188,253)"/>
<path d="M0 0 C2.1875 1.6875 2.1875 1.6875 4.1875 4.6875 C4.51058939 10.94466445 3.31349636 15.87383758 -0.8125 20.6875 C-5.35953527 24.79092207 -8.62862292 25.99718937 -14.8125 25.90625 C-17.76696997 25.58310485 -19.53734375 24.56115809 -21.8125 22.6875 C-24.15991088 18.90913317 -23.95128461 16.22179809 -23.359375 11.9375 C-22.54988238 8.60701608 -20.95035693 6.32838208 -18.8125 3.6875 C-18.35875 3.11 -17.905 2.5325 -17.4375 1.9375 C-12.42369557 -1.91927264 -5.6718587 -2.6468674 0 0 Z M-8.8125 3.6875 C-11.66538164 9.41980171 -13.34694296 14.28609065 -13.8125 20.6875 C-12.8225 20.6875 -11.8325 20.6875 -10.8125 20.6875 C-7.55538723 14.90875154 -6.11906385 10.30927926 -5.8125 3.6875 C-6.8025 3.6875 -7.7925 3.6875 -8.8125 3.6875 Z " fill="#FDFDFD" transform="translate(283.8125,229.3125)"/>
<path d="M0 0 C3.3 0 6.6 0 10 0 C10.83848804 1.45537568 11.67063934 2.91440373 12.5 4.375 C13.19609375 5.59316406 13.19609375 5.59316406 13.90625 6.8359375 C15 9 15 9 15 11 C15.66 11 16.32 11 17 11 C17.33 7.37 17.66 3.74 18 0 C20.64 0 23.28 0 26 0 C26 0.99 26 1.98 26 3 C25.34 3 24.68 3 24 3 C23.61908203 4.75376953 23.61908203 4.75376953 23.23046875 6.54296875 C22.88327833 8.09125037 22.53559609 9.63942175 22.1875 11.1875 C22.02185547 11.95642578 21.85621094 12.72535156 21.68554688 13.51757812 C20.71049592 17.80412287 19.73647668 21.45016249 17 25 C14 26 14 26 11 25 C9.39453125 22.27734375 9.39453125 22.27734375 7.8125 18.9375 C7.01779297 17.28041016 7.01779297 17.28041016 6.20703125 15.58984375 C5.80871094 14.73519531 5.41039062 13.88054687 5 13 C3.15329583 17.20961305 2.81914513 20.38820072 3 25 C0.03 25 -2.94 25 -6 25 C-5.34 23.68 -4.68 22.36 -4 21 C-3.24061717 18.54447742 -2.5344395 16.10644641 -1.875 13.625 C-1.60236328 12.65433594 -1.60236328 12.65433594 -1.32421875 11.6640625 C-0.25647476 7.68209994 0.19114971 4.11609035 0 0 Z " fill="#FCFCFC" transform="translate(237,229)"/>
<path d="M0 0 C3.7 1.4 3.7 1.4 5 4 C4.88440719 8.36585158 4.14471854 12.49774155 2.9375 16.6875 C1.72767753 20.38843774 1.72767753 20.38843774 2 26 C-2.62 26 -7.24 26 -12 26 C-11.34 24.68 -10.68 23.36 -10 22 C-9.67 21.01 -9.34 20.02 -9 19 C-10.65 19 -12.3 19 -14 19 C-14 21.31 -14 23.62 -14 26 C-17.3 26 -20.6 26 -24 26 C-24 25.01 -24 24.02 -24 23 C-23.38125 22.95875 -22.7625 22.9175 -22.125 22.875 C-21.42375 22.58625 -20.7225 22.2975 -20 22 C-19.30159154 20.01086198 -18.64142334 18.00823817 -18 16 C-16.94830196 13.74560445 -15.84178379 11.51613268 -14.6875 9.3125 C-14.11386719 8.19488281 -13.54023438 7.07726562 -12.94921875 5.92578125 C-9.55208781 0.82668091 -6.0365577 -0.64218699 0 0 Z M-7 6 C-9.26396123 8.53563658 -10.40312566 10.65750371 -11 14 C-9.68 14 -8.36 14 -7 14 C-5.74335022 11.09399739 -5 9.20395416 -5 6 C-5.66 6 -6.32 6 -7 6 Z " fill="#FCFCFC" transform="translate(330,228)"/>
<path d="M0 0 C4.29 0 8.58 0 13 0 C13.33 0.66 13.66 1.32 14 2 C13.67 2.99 13.34 3.98 13 5 C13.39397335 7.63804589 13.39397335 7.63804589 14 10 C14.42152344 9.36191406 14.84304688 8.72382813 15.27734375 8.06640625 C15.82519531 7.24011719 16.37304688 6.41382813 16.9375 5.5625 C17.48277344 4.73878906 18.02804687 3.91507813 18.58984375 3.06640625 C20 1 20 1 21 0 C24 -0.125 24 -0.125 27 0 C27.33 0.33 27.66 0.66 28 1 C27.71269945 3.33944736 27.38063221 5.6739143 27 8 C25.41058594 8.25910156 25.41058594 8.25910156 23.7890625 8.5234375 C20.51850445 9.45670696 19.25846013 10.56596133 17.5234375 13.4765625 C16.78514438 14.8476783 16.06936634 16.23112387 15.375 17.625 C14.04152727 20.27261977 12.69544258 22.53771413 11 25 C8.2265625 25.4609375 8.2265625 25.4609375 6 25 C4.39172399 20.50239696 3.33492084 16.06414135 2.4375 11.375 C1.70077553 7.55014032 0.9448959 3.7795836 0 0 Z " fill="#FCFCFC" transform="translate(288,229)"/>
<path d="M0 0 C5.36116726 4.48874634 10.41328609 9.19983647 15.375 14.125 C16.09816406 14.82753906 16.82132813 15.53007812 17.56640625 16.25390625 C18.25347656 16.93582031 18.94054687 17.61773437 19.6484375 18.3203125 C20.26895996 18.93148926 20.88948242 19.54266602 21.52880859 20.17236328 C23.13295401 22.16516657 23.7168188 23.46768148 24 26 C22.7421875 28 22.7421875 28 20.875 30 C20.23175781 30.6909375 19.58851563 31.381875 18.92578125 32.09375 C16.74467369 34.25273679 14.48234199 36.19466037 12 38 C11.63402889 30.55858748 11.63402889 30.55858748 13.1875 28.1875 C14.65793057 27.22411445 16.16776674 26.32106585 17.6875 25.4375 C18.450625 24.963125 19.21375 24.48875 20 24 C20.21604205 21.92016253 20.21604205 21.92016253 18.70239258 20.4753418 C18.10579834 19.88922119 17.5092041 19.30310059 16.89453125 18.69921875 C16.24033203 18.05146484 15.58613281 17.40371094 14.91210938 16.73632812 C14.21923828 16.06021484 13.52636719 15.38410156 12.8125 14.6875 C12.13896484 14.02298828 11.46542969 13.35847656 10.77148438 12.67382812 C7.10575747 9.05178446 7.10575747 9.05178446 3.39599609 5.47509766 C2.22830843 4.3527171 1.10809598 3.18125183 0 2 C0 1.34 0 0.68 0 0 Z " fill="#3C52D7" transform="translate(196,221)"/>
<path d="M0 0 C0.65844727 1.7956543 0.65844727 1.7956543 1 4 C-0.56628955 6.64595356 -2.87682736 8.66430942 -5.0625 10.8125 C-5.63677734 11.42287109 -6.21105469 12.03324219 -6.80273438 12.66210938 C-11.12090504 16.98028004 -11.12090504 16.98028004 -15.30859375 17.07421875 C-18 16 -18 16 -20 13 C-19.2575 13.185625 -18.515 13.37125 -17.75 13.5625 C-15.05009037 13.99203108 -13.55368923 13.85122974 -11 13 C-11 12.34 -11 11.68 -11 11 C-10.34 11 -9.68 11 -9 11 C-9 10.34 -9 9.68 -9 9 C-8.360625 8.7525 -7.72125 8.505 -7.0625 8.25 C-4.81258459 7.18437567 -4.81258459 7.18437567 -4.25 4.875 C-4.1675 4.25625 -4.085 3.6375 -4 3 C-2.68 2.67 -1.36 2.34 0 2 C0 1.34 0 0.68 0 0 Z " fill="#46E6F0" transform="translate(199,266)"/>
<path d="M0 0 C5.36116726 4.48874634 10.41328609 9.19983647 15.375 14.125 C16.09816406 14.82753906 16.82132813 15.53007812 17.56640625 16.25390625 C18.25347656 16.93582031 18.94054687 17.61773437 19.6484375 18.3203125 C20.26895996 18.93148926 20.88948242 19.54266602 21.52880859 20.17236328 C23.1301406 22.16167151 23.72972739 23.46890685 24 26 C22.5625 27.75 22.5625 27.75 21 29 C21.23783203 27.76443359 21.23783203 27.76443359 21.48046875 26.50390625 C20.73558321 21.0716922 17.20818301 18.56872411 13.3125 14.9375 C12.59126953 14.24333984 11.87003906 13.54917969 11.12695312 12.83398438 C8.5546541 10.36034888 5.96384714 7.90686245 3.36474609 5.46142578 C2.20547058 4.34549531 1.09599505 3.17814064 0 2 C0 1.34 0 0.68 0 0 Z " fill="#4654B0" transform="translate(196,221)"/>
<path d="M0 0 C2.99329122 1.23253168 4.26881368 3.28959763 6.125 5.875 C4.805 5.875 3.485 5.875 2.125 5.875 C1.795 4.885 1.465 3.895 1.125 2.875 C0.135 2.545 -0.855 2.215 -1.875 1.875 C-1.85179687 2.93460938 -1.82859375 3.99421875 -1.8046875 5.0859375 C-1.78593056 6.4739513 -1.76773028 7.8619727 -1.75 9.25 C-1.73324219 9.94867188 -1.71648437 10.64734375 -1.69921875 11.3671875 C-1.68155733 13.20397486 -1.77196739 15.04101963 -1.875 16.875 C-2.535 17.535 -3.195 18.195 -3.875 18.875 C-3.875 12.935 -3.875 6.995 -3.875 0.875 C-1.875 -0.125 -1.875 -0.125 0 0 Z " fill="#4247BB" transform="translate(189.875,215.125)"/>
<path d="M0 0 C0 0.66 0 1.32 0 2 C-0.556875 2.226875 -1.11375 2.45375 -1.6875 2.6875 C-5.23656142 4.70183215 -8.2295835 7.30508371 -9.9375 11.0625 C-11.54653315 13.99661928 -14.23727859 15.17660387 -17 17 C-19.32277416 19.6091387 -19.32277416 19.6091387 -21 22 C-21.66 21.67 -22.32 21.34 -23 21 C-3.76842105 0 -3.76842105 0 0 0 Z " fill="#4552BB" transform="translate(181,215)"/>
<path d="M0 0 C1.44010481 0.25662245 2.8770687 0.53090821 4.3125 0.8125 C5.11300781 0.96332031 5.91351563 1.11414063 6.73828125 1.26953125 C9.23445587 2.07572236 10.32422106 3.02052002 12 5 C11.34 5.66 10.68 6.32 10 7 C7.19245361 7 5.58733067 6.57615862 3.5625 4.58984375 C2.32367881 3.10114669 1.15673922 1.55333552 0 0 Z " fill="#4057C9" transform="translate(196,255)"/>
<path d="M0 0 C0.66 0.66 1.32 1.32 2 2 C2.99 1.67 3.98 1.34 5 1 C3.59155282 4.21524305 1.89655214 6.32183868 -0.625 8.75 C-1.57246094 9.67039063 -1.57246094 9.67039063 -2.5390625 10.609375 C-3.02117187 11.06828125 -3.50328125 11.5271875 -4 12 C-4.33 10.68 -4.66 9.36 -5 8 C-3.35 7.34 -1.7 6.68 0 6 C0 4.02 0 2.04 0 0 Z " fill="#495BC1" transform="translate(176,245)"/>
<path d="M0 0 C1.98 0.66 3.96 1.32 6 2 C4.02 4.31 2.04 6.62 0 9 C-1.36623674 6.26752652 -1.128426 4.01801098 -1 1 C-0.67 0.67 -0.34 0.34 0 0 Z " fill="#4152C5" transform="translate(209,250)"/>
<path d="M0 0 C-0.33 0.66 -0.66 1.32 -1 2 C-4.64717645 2 -7.54956883 1.15014372 -11 0 C-11.33 -0.66 -11.66 -1.32 -12 -2 C-6.93395388 -3.3268216 -4.47171108 -2.66173278 0 0 Z " fill="#3AEAF8" transform="translate(199,264)"/>
<path d="M0 0 C3.70066609 0.90460727 5.56497978 1.43868358 7.9375 4.5 C8.288125 5.325 8.63875 6.15 9 7 C8.67 7.66 8.34 8.32 8 9 C6.66368764 7.6905332 5.33102075 6.37734515 4 5.0625 C3.2575 4.33160156 2.515 3.60070312 1.75 2.84765625 C0 1 0 1 0 0 Z " fill="#4552B6" transform="translate(151,249)"/>
<path d="M0 0 C2.31 0.66 4.62 1.32 7 2 C6.34 3.32 5.68 4.64 5 6 C3.35 4.02 1.7 2.04 0 0 Z " fill="#495DC7" transform="translate(196,255)"/>
<path d="M0 0 C3.25543229 0.34879632 4.01873107 1.02133261 6.25 3.5625 C6.8275 4.366875 7.405 5.17125 8 6 C6.68 6 5.36 6 4 6 C3.67 5.01 3.34 4.02 3 3 C2.01 2.67 1.02 2.34 0 2 C0 1.34 0 0.68 0 0 Z " fill="#4A55BB" transform="translate(188,215)"/>
<path d="M0 0 C0.66 0.66 1.32 1.32 2 2 C2.99 1.67 3.98 1.34 5 1 C4.1875 2.9375 4.1875 2.9375 3 5 C2.01 5.33 1.02 5.66 0 6 C0 4.02 0 2.04 0 0 Z " fill="#3E59C9" transform="translate(176,245)"/>
</svg>